<svg id="visual" viewBox="0 0 900 900" width="900" height="900" xmlns="http://www.w3.org/2000/svg" xmlns:xlink="http://www.w3.org/1999/xlink" version="1.1"><rect x="0" y="0" width="900" height="900" fill="#fff"></rect><defs><linearGradient id="grad1_0" x1="0%" y1="100%" x2="100%" y2="0%"><stop offset="30%" stop-color="#ffffff" stop-opacity="1"></stop><stop offset="70%" stop-color="#ffffff" stop-opacity="1"></stop></linearGradient></defs><defs><linearGradient id="grad2_0" x1="0%" y1="100%" x2="100%" y2="0%"><stop offset="30%" stop-color="#ffffff" stop-opacity="1"></stop><stop offset="70%" stop-color="#ffffff" stop-opacity="1"></stop></linearGradient></defs><g transform="translate(900, 900)"><path d="M-318.2 0C-317 -44.4 -315.9 -88.8 -294 -121.8C-272.1 -154.7 -229.5 -176.3 -195.2 -195.2C-160.9 -214.1 -134.8 -230.3 -103.7 -250.4C-72.6 -270.4 -36.3 -294.3 0 -318.2L0 0Z" fill="#89cff0"></path></g><g transform="translate(0, 0)"><path d="M318.2 0C316.3 44.1 314.4 88.3 294 121.8C273.6 155.2 234.8 178 202.9 202.9C171.1 227.8 146.3 254.8 113.7 274.4C81 294 40.5 306.1 0 318.2L0 0Z" fill="#89cff0"></path></g></svg>