<svg id="visual" viewBox="0 0 900 900" width="900" height="900" xmlns="http://www.w3.org/2000/svg" xmlns:xlink="http://www.w3.org/1999/xlink" version="1.1"><rect x="0" y="0" width="900" height="900" fill="#fff"></rect><path d="M610 900L613.5 887.5C617 875 624 850 608.3 825C592.7 800 554.3 775 529.7 750C505 725 494 700 506.5 675C519 650 555 625 581.5 600C608 575 625 550 616.7 525C608.3 500 574.7 475 575.8 450C577 425 613 400 615 375C617 350 585 325 566.8 300C548.7 275 544.3 250 544.3 225C544.3 200 548.7 175 562.3 150C576 125 599 100 593.8 75C588.7 50 555.3 25 538.7 12.5L522 0L900 0L900 12.5C900 25 900 50 900 75C900 100 900 125 900 150C900 175 900 200 900 225C900 250 900 275 900 300C900 325 900 350 900 375C900 400 900 425 900 450C900 475 900 500 900 525C900 550 900 575 900 600C900 625 900 650 900 675C900 700 900 725 900 750C900 775 900 800 900 825C900 850 900 875 900 887.5L900 900Z" fill="#89cff0" stroke-linecap="round" stroke-linejoin="miter"></path></svg>