<svg id="visual" viewBox="0 0 900 900" width="900" height="900" xmlns="http://www.w3.org/2000/svg" xmlns:xlink="http://www.w3.org/1999/xlink" version="1.1"><rect x="0" y="0" width="900" height="900" fill="#fff"></rect><defs><linearGradient id="grad1_0" x1="0%" y1="100%" x2="100%" y2="0%"><stop offset="30%" stop-color="#ffffff" stop-opacity="1"></stop><stop offset="70%" stop-color="#ffffff" stop-opacity="1"></stop></linearGradient></defs><defs><linearGradient id="grad2_0" x1="0%" y1="100%" x2="100%" y2="0%"><stop offset="30%" stop-color="#ffffff" stop-opacity="1"></stop><stop offset="70%" stop-color="#ffffff" stop-opacity="1"></stop></linearGradient></defs><g transform="translate(900, 900)"><path d="M-63.6 0C-63.2 -8.6 -62.7 -17.1 -58.8 -24.4C-54.9 -31.6 -47.6 -37.5 -40.3 -40.3C-33 -43.1 -25.8 -42.8 -19.1 -46.2C-12.4 -49.6 -6.2 -56.6 0 -63.6L0 0Z" fill="#89cff0"></path></g><g transform="translate(0, 0)"><path d="M63.6 0C62.9 8.1 62.2 16.3 58.8 24.4C55.4 32.4 49.2 40.5 41 41C32.8 41.5 22.5 34.4 15.3 37C8.1 39.5 4.1 51.6 0 63.6L0 0Z" fill="#89cff0"></path></g></svg>