<svg id="visual" viewBox="0 0 900 900" width="900" height="900" xmlns="http://www.w3.org/2000/svg" xmlns:xlink="http://www.w3.org/1999/xlink" version="1.1"><rect x="0" y="0" width="900" height="900" fill="#fff"></rect><defs><linearGradient id="grad1_0" x1="0%" y1="100%" x2="100%" y2="0%"><stop offset="30%" stop-color="#ffffff" stop-opacity="1"></stop><stop offset="70%" stop-color="#ffffff" stop-opacity="1"></stop></linearGradient></defs><defs><linearGradient id="grad2_0" x1="0%" y1="100%" x2="100%" y2="0%"><stop offset="30%" stop-color="#ffffff" stop-opacity="1"></stop><stop offset="70%" stop-color="#ffffff" stop-opacity="1"></stop></linearGradient></defs><g transform="translate(900, 900)"><path d="M-95.5 0C-96.6 -14.3 -97.7 -28.6 -88.2 -36.5C-78.7 -44.4 -58.6 -45.9 -46 -46C-33.3 -46 -28.2 -44.6 -21.8 -52.7C-15.4 -60.7 -7.7 -78.1 0 -95.5L0 0Z" fill="#89cff0"></path></g><g transform="translate(0, 0)"><path d="M95.5 0C95.3 13.2 95.1 26.3 88.2 36.5C81.3 46.7 67.7 54 55.9 55.9C44 57.8 33.9 54.3 24.9 60.1C15.9 65.8 7.9 80.6 0 95.5L0 0Z" fill="#89cff0"></path></g></svg>